<?xml version="1.0" encoding="UTF-8" standalone="no"?><!-- Generator: Gravit.io --><svg xmlns="http://www.w3.org/2000/svg" xmlns:xlink="http://www.w3.org/1999/xlink" style="isolation:isolate" viewBox="0 0 24 24" width="24pt" height="24pt"><defs><clipPath id="_clipPath_MwO6AZmWQrUICkUT4GWjm2RfQhncolcU"><rect width="24" height="24"/></clipPath></defs><g clip-path="url(#_clipPath_MwO6AZmWQrUICkUT4GWjm2RfQhncolcU)"><mask id="_mask_AhXrACtpTEY9sWbDUWqiFdqmSCtFN6Tv" x="-200%" y="-200%" width="400%" height="400%"><rect x="-200%" y="-200%" width="400%" height="400%" style="fill:white;"/><path d=" M 20.84 4.61 C 19.808 3.578 18.409 2.998 16.95 2.998 C 15.491 2.998 14.092 3.578 13.06 4.61 L 12 5.67 L 10.94 4.61 C 8.792 2.462 5.308 2.462 3.16 4.61 C 1.012 6.758 1.012 10.242 3.16 12.39 L 4.22 13.45 L 12 21.23 L 19.78 13.45 L 20.84 12.39 C 21.872 11.358 22.452 9.959 22.452 8.5 C 22.452 7.041 21.872 5.642 20.84 4.61 Z " fill="black" stroke="none"/></mask><path d=" M 20.84 4.61 C 19.808 3.578 18.409 2.998 16.95 2.998 C 15.491 2.998 14.092 3.578 13.06 4.61 L 12 5.67 L 10.94 4.61 C 8.792 2.462 5.308 2.462 3.16 4.61 C 1.012 6.758 1.012 10.242 3.16 12.39 L 4.22 13.45 L 12 21.23 L 19.78 13.45 L 20.84 12.39 C 21.872 11.358 22.452 9.959 22.452 8.5 C 22.452 7.041 21.872 5.642 20.84 4.61 Z " fill="none"/><path d=" M 20.84 4.61 C 19.808 3.578 18.409 2.998 16.95 2.998 C 15.491 2.998 14.092 3.578 13.06 4.61 L 12 5.67 L 10.94 4.61 C 8.792 2.462 5.308 2.462 3.16 4.61 C 1.012 6.758 1.012 10.242 3.16 12.39 L 4.22 13.45 L 12 21.23 L 19.78 13.45 L 20.84 12.39 C 21.872 11.358 22.452 9.959 22.452 8.5 C 22.452 7.041 21.872 5.642 20.84 4.61 Z " fill="none" mask="url(#_mask_AhXrACtpTEY9sWbDUWqiFdqmSCtFN6Tv)" vector-effect="non-scaling-stroke" stroke-width="4" stroke="rgb(255,255,255)" stroke-linejoin="round" stroke-linecap="round" stroke-miterlimit="4"/></g></svg>