<?xml version="1.0" encoding="UTF-8" standalone="no"?><!-- Generator: Gravit.io --><svg xmlns="http://www.w3.org/2000/svg" xmlns:xlink="http://www.w3.org/1999/xlink" style="isolation:isolate" viewBox="0 0 24 24" width="24pt" height="24pt"><defs><clipPath id="_clipPath_L56XHJAlhyyQ4elKLpHGpsLoh4PTQnkq"><rect width="24" height="24"/></clipPath></defs><g clip-path="url(#_clipPath_L56XHJAlhyyQ4elKLpHGpsLoh4PTQnkq)"><mask id="_mask_gLJrEVoyweDHOmPaxS4jPfvMRXGpa2H3" x="-200%" y="-200%" width="400%" height="400%"><rect x="-200%" y="-200%" width="400%" height="400%" style="fill:white;"/><path d=" M 14 2 L 6 2 C 4.895 2 4 2.895 4 4 L 4 20 C 4 21.105 4.895 22 6 22 L 18 22 C 19.105 22 20 21.105 20 20 L 20 8 L 14 2 Z " fill="black" stroke="none"/></mask><path d=" M 14 2 L 6 2 C 4.895 2 4 2.895 4 4 L 4 20 C 4 21.105 4.895 22 6 22 L 18 22 C 19.105 22 20 21.105 20 20 L 20 8 L 14 2 Z " fill="none"/><path d=" M 14 2 L 6 2 C 4.895 2 4 2.895 4 4 L 4 20 C 4 21.105 4.895 22 6 22 L 18 22 C 19.105 22 20 21.105 20 20 L 20 8 L 14 2 Z " fill="none" mask="url(#_mask_gLJrEVoyweDHOmPaxS4jPfvMRXGpa2H3)" vector-effect="non-scaling-stroke" stroke-width="4" stroke="rgb(255,255,255)" stroke-linejoin="round" stroke-linecap="round" stroke-miterlimit="4"/><path d=" M 14 2 L 14 8 L 20 8" fill="none"/><line x1="16" y1="13" x2="8" y2="13"/><line x1="16" y1="17" x2="8" y2="17"/><path d=" M 10 9 L 9 9 L 8 9" fill="rgb(255,255,255)"/></g></svg>