<?xml version="1.0" encoding="UTF-8" standalone="no"?><!-- Generator: Gravit.io --><svg xmlns="http://www.w3.org/2000/svg" xmlns:xlink="http://www.w3.org/1999/xlink" style="isolation:isolate" viewBox="0 0 24 24" width="24pt" height="24pt"><defs><clipPath id="_clipPath_QY7gI54G46ozIOuunAx2A6dapRPj7bft"><rect width="24" height="24"/></clipPath></defs><g clip-path="url(#_clipPath_QY7gI54G46ozIOuunAx2A6dapRPj7bft)"><path d=" M 9 19 C 4 20.5 4 16.5 2 16 M 16 22 L 16 18.13 C 16.076 17.165 15.733 16.215 15.06 15.52 C 18.2 15.17 21.5 13.98 21.5 8.52 C 21.5 7.124 20.963 5.781 20 4.77 C 20.456 3.549 20.424 2.198 19.91 1 C 19.91 1 18.73 0.65 16 2.48 C 13.708 1.859 11.292 1.859 9 2.48 C 6.27 0.65 5.09 1 5.09 1 C 4.576 2.198 4.544 3.549 5 4.77 C 4.03 5.789 3.493 7.143 3.5 8.55 C 3.5 13.97 6.8 15.16 9.94 15.55 C 9.275 16.238 8.933 17.176 9 18.13 L 9 22" fill="none" vector-effect="non-scaling-stroke" stroke-width="2" stroke="rgb(255,255,255)" stroke-linejoin="round" stroke-linecap="round" stroke-miterlimit="4"/></g></svg>