<svg width="203" height="208" xmlns="http://www.w3.org/2000/svg">
 <g>
  <title>Layer 1</title>
  <g id="svg_10">
   <path fill="#999999" d="m27.39433,53.7741c5.22223,-3.65 13.09446,-2.95 17.78335,0.92222l-5.37778,-7.81667c-4.32778,-6.17223 -2.77778,-12.85001 3.4,-17.18335c6.17778,-4.31667 23.68335,7.28889 23.68335,7.28889c-4.36667,-6.23334 -3.55,-14.13334 2.68334,-18.50557c6.23334,-4.35556 14.83335,-2.85 19.20002,3.39445l57.88894,81.77784l-7.37778,71.52784l-61.57227,-22.45557l-53.7056,-79.62784c-4.40556,-6.27223 -2.88334,-14.92223 3.39445,-19.32224l-0.00002,0z" id="svg_4"/>
   <path fill="#999999" d="m15.36098,99.26858s-6.28889,-9.16667 2.88334,-15.45001c9.16112,-6.28334 15.44446,2.87778 15.44446,2.87778l29.17225,42.54448c1.00556,-1.67778 2.10556,-3.33334 3.33334,-4.96667l-40.48892,-59.03894s-6.28334,-9.16112 2.88334,-15.44446c9.16112,-6.28334 15.44446,2.87778 15.44446,2.87778l38.08336,55.53893c1.41667,-1.15556 2.86667,-2.31667 4.36111,-3.45556l-44.15004,-64.3945s-6.28334,-9.16112 2.88334,-15.44446c9.16112,-6.28334 15.44446,2.87778 15.44446,2.87778l44.15004,64.38339c1.62222,-0.99445 3.22778,-1.85556 4.83889,-2.76667l-41.2667,-60.17783s-6.28334,-9.16112 2.87778,-15.44446c9.16112,-6.28334 15.44446,2.87778 15.44446,2.87778l43.63337,63.63339l6.63334,9.67779c-27.48891,18.85557 -30.10558,54.32782 -14.40001,77.2334c3.13889,4.58334 7.72223,1.44445 7.72223,1.44445c-18.85002,-27.49447 -13.09446,-58.38894 14.40001,-77.23895l-8.10556,-40.5667s-3.02778,-10.6889 7.65556,-13.72223c10.6889,-3.02778 13.72223,7.66112 13.72223,7.66112l9.36112,27.80002c3.71111,11.02223 7.66112,22.00557 12.8889,32.39447c14.76112,29.33336 5.94445,65.78894 -21.88891,84.8834c-30.36114,20.81668 -71.86673,13.07779 -92.68896,-17.27779l-50.27226,-73.31673l-0.00003,0z" id="svg_5"/>
   <g fill="#5DADEC" id="svg_6" transform="matrix(5.55556, 0, 0, 5.55556, 0, 0)">
    <path fill="#999999" d="m12.06998,32.57433c-4,0 -8.042,-4.042 -8.042,-8.042c0,-0.553 -0.405,-1 -0.958,-1s-1.042,0.447 -1.042,1c0,6 4.042,10.042 10.042,10.042c0.553,0 1,-0.489 1,-1.042s-0.447,-0.958 -1,-0.958z" id="svg_7"/>
    <path fill="#999999" d="m7.06998,34.53233c-3,0 -5,-2 -5,-5c0,-0.553 -0.447,-1 -1,-1s-1,0.447 -1,1c0,4 3,7 7,7c0.553,0 1,-0.447 1,-1s-0.447,-1 -1,-1zm17,-32c-0.552,0 -1,0.448 -1,1s0.448,1 1,1c4,0 8,3.589 8,8c0,0.552 0.448,1 1,1s1,-0.448 1,-1c0,-5.514 -4,-10 -10,-10z" id="svg_8"/>
    <path fill="#999999" d="m29.06998,0.57433c-0.552,0 -1,0.406 -1,0.958s0.448,1.042 1,1.042c3,0 4.958,2.225 4.958,4.958c0,0.552 0.489,1 1.042,1s0.958,-0.448 0.958,-1c0,-3.837 -2.958,-6.958 -6.958,-6.958z" id="svg_9"/>
   </g>
  </g>
 </g>

</svg>